<?xml version="1.0" encoding="UTF-8"?>
<svg id="Layer_1" xmlns="http://www.w3.org/2000/svg" version="1.1" viewBox="0 0 1693.2 245.9">
  <!-- Generator: Adobe Illustrator 30.2.1, SVG Export Plug-In . SVG Version: 2.1.1 Build 1)  -->
  <defs>
    <style>
      .st0 {
        fill: #e5e5e5;
      }
    </style>
  </defs>
  <path class="st0" d="M66.1,57C30,57,0,83.3,0,123.1s30,66.1,66.1,66.1,66.3-26.3,66.3-66.1-30.3-66.1-66.3-66.1ZM87.8,151.1c0,13.3-9.3,23-21.8,23s-21.5-9.8-21.5-23v-55.8c0-13.5,9.3-23.3,21.5-23.3s21.8,9.8,21.8,23.3v55.8Z"/>
  <path class="st0" d="M219.2,60.5h-41.8c-12,0-21,9-21,21v115.6c0,12,8.8,21,20.5,21s20.3-9,20.3-21v-11.5h22c38.5,0,66.1-24.8,66.1-62.6s-27.5-62.6-66.1-62.6ZM241.4,147.3c0,13.5-9.5,23.5-22.3,23.5s-22-10-22-23.5v-48.3c0-13.8,9.5-23.8,22-23.8s22.3,10,22.3,23.8v48.3Z"/>
  <path class="st0" d="M388.3,60.5h-22.3v-11.5c0-12-8.5-21-20.3-21s-20.5,9-20.5,21v11.5h-22.3c-5.8,0-10,3.8-10,9.5s4.3,9.8,10,9.8h22.3v87.3c0,12,8.8,21,20.5,21s20.3-9,20.3-21v-87.3h22.3c5.8,0,10-4.3,10-9.8s-4.3-9.5-10-9.5Z"/>
  <path class="st0" d="M467.1,57c-36,0-66.1,26.3-66.1,66.1s30,66.1,66.1,66.1,66.3-26.3,66.3-66.1-30.3-66.1-66.3-66.1ZM488.9,151.1c0,13.3-9.3,23-21.8,23s-21.5-9.8-21.5-23v-55.8c0-13.5,9.3-23.3,21.5-23.3s21.8,9.8,21.8,23.3v55.8Z"/>
  <path class="st0" d="M617.5,71.8c12.5,0,21.8,10,21.8,23.8s6.8,17.3,18.5,17.3,22.5-18,11.5-34.5c-7.3-11-25.8-21.3-51.8-21.3s-66.1,26.3-66.1,66.1,32.5,66.1,66.1,66.1,44.5-10.3,51.8-21.3c11-16.5,3.3-34.5-11.5-34.5s-18.5,8.8-18.5,17.3c0,13.8-9.3,23.8-21.8,23.8s-22-10-22-23.8v-55c0-13.8,9.5-23.8,22-23.8Z"/>
  <path class="st0" d="M751.4,60.5h-31.3c-12,0-21,7.5-21,17.5s9,17.5,21,17.5h61.1c6.8,0,11.3,4,11.3,10s-4.5,10-11.3,10h-35.8c-33,0-50.3,14-50.3,35s17.3,35,50.3,35h49.3c12,0,21-9,21-21v-39.8c0-40.3-23.8-64.3-64.3-64.3ZM757.9,170.1c-11.3,0-19.5-8.5-19.5-19.8s8.3-19.3,19.5-19.3,19.5,8.3,19.5,19.3-8.3,19.8-19.5,19.8Z"/>
  <path class="st0" d="M993.6,60.5h-128.4c-12,0-21,9-21,21v85.6c0,12,8.8,21,20.5,21s20.3-9,20.3-21v-69.3c0-13.3,9.5-22.5,22.5-22.5s22.5,9.3,22.5,22.5v69.3c0,12,8.8,21,20.5,21s20.3-9,20.3-21v-69.3c0-13.3,9.5-22.5,22.5-22.5s22.5,9.3,22.5,22.5v69.3c0,12,8.8,21,20.5,21s20.3-9,20.3-21v-43.8c0-36.5-26.3-62.8-63.1-62.8Z"/>
  <path class="st0" d="M1280.5,63.5h-4.8c-2.6,0-4.6,1.2-6.2,3.5-1.6,2.3-3.2,4.7-4.6,7-1.5,2.3-3.3,3.5-5.6,3.5s-7.4-2.3-13.6-7c-6.2-4.7-11.7-7-16.6-7-8.9,0-16.9,3.5-24,10.5-7.1,7-10.6,12.9-10.6,17.8s2.1,2.8,6.3,2.8h4.1c.8,0,1.5-.2,2.3-.6.7-.4,1.2-.6,1.2-.8,0-.2.4-.7.9-1.6.5-.9,1-1.7,1.3-2.3,3.7-5.9,8.9-8.9,15.4-8.9s7.9,1.6,13.2,4.8c5.3,3.2,9.3,5.3,12,6.3-6,6.9-14.2,15.3-24.6,25.2-10.4,9.9-20,19.4-28.7,28.6-8.8,9.2-16.1,18.5-22.1,28-2.1,3.4-3.2,5.6-3.2,6.6,0,1.6,2,2.5,6.1,2.5h2.7c2.4,0,4-.4,4.8-1.2.2-.2,1.2-1.5,3.2-3.9,1.9-2.4,4.2-4.5,6.7-6.3,2.6-1.8,5.4-2.7,8.4-2.7s8.7,2.3,14.8,6.9c6.2,4.6,11.8,6.9,16.8,6.9,11.8,0,22.1-5,30.8-14.9,8.8-9.9,13.2-17.8,13.2-23.5s-1.4-3.1-4.3-3.1h-2.5c-1.2,0-2.3,0-3.1.1-.8,0-1.5.2-2,.4-.5.2-.9.4-1.3.4-.4,0-.7.3-.9.7-.2.4-.5.7-.6.9-.2.2-.3.5-.5,1.1-.2.6-.3,1-.5,1.4-2.2,5.8-5.8,10.5-10.7,14.1-4.9,3.6-9.9,5.4-14.9,5.4s-8.7-1.9-15-5.8c-6.3-3.9-11.8-6-16.7-6.3,5.4-6.1,15.6-16.3,30.5-30.7,14.9-14.4,25.7-25.7,32.5-33.9l3.8-4.4c2.3-3,4.7-6.4,7.2-10.2,2.5-3.7,3.7-6.4,3.7-7.8s-1.5-2.5-4.6-2.5Z"/>
  <path class="st0" d="M1389.9,70.2c-5.7-4.4-12.9-6.7-21.7-6.7-19.6,0-35.6,7.4-48,22.2-12.4,14.8-18.6,32.7-18.6,53.6s1.2,15.1,3.5,21.1c2.3,6,5.6,10.5,9.6,13.5,4.1,3,8.3,5.1,12.5,6.4,4.3,1.3,8.8,2,13.5,2s12.6-.7,18.7-2.2c6-1.4,11.2-3.2,15.4-5.3,4.3-2.1,8.1-4.3,11.5-6.7,3.4-2.3,5.9-4.4,7.5-6.3,1.6-1.9,2.4-3.3,2.4-4.3s-1-2.9-3-5.1c-2-2.2-3.5-3.3-4.7-3.3s-2.2,1-4.5,2.9c-2.3,1.9-5,4-8.1,6.2-3,2.2-7.5,4.2-13.4,6.2-5.9,1.9-12.2,2.9-19,2.9s-13.9-2.4-18-7.1c-4.1-4.7-6.1-11.4-6.1-20,0-3.7.8-9.3,2.1-16.7,18,0,31.5-.8,40.5-2.5,7.9-1.6,14.4-3.9,19.8-6.9,5.3-3,9.1-6.3,11.3-10,2.2-3.7,3.6-6.8,4.3-9.3.7-2.5,1-5,1-7.4,0-7.2-2.8-13.1-8.5-17.5ZM1333.7,108.7h-8.4c7.4-20.2,20.8-30.3,40-30.3h.2c5.9,0,10.2,1.2,12.9,3.6,2.7,2.4,4,5.1,4,8,0,12.4-16.3,18.7-48.8,18.7Z"/>
  <path class="st0" d="M1500.4,63.8c-5.3,0-10.2,1-14.8,3-4.6,2-8.1,3.9-10.4,5.8-2.3,1.9-5,4.4-8.1,7.6-1.7-5.8-4.7-10-9-12.6-4.2-2.6-8.6-3.8-13.2-3.8s-8.4,1.3-12.1,3.9c-3.7,2.6-6.7,5.7-8.8,9.4-2.2,3.7-4.1,7.5-5.8,11.5-1.7,4-2.8,7.2-3.4,9.6-.6,2.4-.9,3.9-.9,4.4,0,2.4,1.8,3.6,5.3,3.6h4c2.2,0,3.7-.6,4.6-1.6.3-.5,1.1-3,2.4-7.5,1.3-4.5,2.9-8.6,4.9-12.5,2-3.8,4.5-5.7,7.4-5.7s3.6.8,5.4,2.5c1.8,1.7,2.7,4.2,2.7,7.6s-.4,3.3-1.2,7l-17.7,71.3c-1,3.4-1.5,6.1-1.5,8.2,0,4.5,2.3,6.8,7,6.8s4.7-.7,6.4-2c1.6-1.3,3.1-3.6,4.2-6.9,1.2-3.2,2.2-6.6,3.1-10.2.9-3.6,2.1-8.7,3.6-15.1,1.6-6.5,3-12.7,4.5-18.5,1.6-5.2,3.4-10.3,5.4-15.2,2-4.9,4.5-10.3,7.8-16.2,3.2-5.9,7.1-10.6,11.6-14.2,4.5-3.6,9.3-5.3,14.2-5.3s8.4,2,11.6,6.1c-3,3-4.5,6.1-4.5,9.4s.7,4.1,2.2,5.6c1.4,1.5,3.3,2.2,5.7,2.2s5.9-1.3,8.4-3.8c2.5-2.6,3.7-6.4,3.7-11.6s-2.3-12.2-6.8-16.3c-4.6-4.1-10.5-6.2-17.7-6.2Z"/>
  <path class="st0" d="M1593.6,63.5c-13.3,0-25.3,4.1-36,12.4-10.7,8.2-18.7,18.3-24,30.2-5.3,11.9-8,24-8,36.4s3.6,22.5,10.8,29.5c7.2,7,16.8,10.4,28.6,10.4s19.9-2.5,28.8-7.5c8.9-5,16.1-11.3,21.7-19.1,5.6-7.7,9.9-16.2,13.1-25.5,3.1-9.2,4.7-18.2,4.7-26.9,0-12.6-3.6-22.4-10.9-29.4-7.3-7-16.9-10.5-28.8-10.5ZM1613,119.9c-1.5,6.4-3.9,13.3-7.1,20.9-3.2,7.5-8.2,13.9-15,19-6.8,5.1-14.5,7.7-23.3,7.7s-12.3-1.9-17-5.6c-4.7-3.7-7.1-10.2-7.1-19.3s.9-12.1,2.7-18.9c1.8-6.8,4.4-13.8,7.9-20.8,3.5-7,8.4-12.8,14.9-17.4,6.4-4.6,13.8-6.9,22-6.9s12.5,1.9,17.3,5.6c4.7,3.7,7.1,10.2,7.1,19.3s-.8,10.1-2.3,16.5Z"/>
  <path class="st0" d="M1607.3,2h-412.9c-47.3,0-85.9,38.5-85.9,85.9v70.2c0,47.3,38.5,85.9,85.9,85.9h412.9c47.3,0,85.9-38.5,85.9-85.9v-70.2c0-47.3-38.5-85.9-85.9-85.9ZM1680.1,158c0,40.2-32.7,72.8-72.8,72.8h-412.9c-40.2,0-72.8-32.7-72.8-72.8v-70.2c0-40.2,32.7-72.8,72.8-72.8h412.9c40.2,0,72.8,32.7,72.8,72.8v70.2Z"/>
</svg>